PathFileType	4	(X/Y/Z)	/home/nbianco/projects/addbio/data/HamnerRunning2013/Processed/subject10//results/MarkerData/run300.trc
DataRate	CameraRate	NumFrames	NumMarkers	Units	OrigDataRate	OrigDataStartFrame	OrigNumFrames
100	100	10	42	m	100	0	217
Frame#	Time	C7			CLAV			LACR			LASI			LCAL			LFAradius			LFAsuperior			LFAulna			LLEL			LMEL			LMT5			LPSI			LTB1			LTB2			LTB3			LTH1			LTH2			LTH3			LTOE			LUA1			LUA2			LUA3			RACR			RASI			RCAL			RFAradius			RFAsuperior			RFAulna			RLEL			RMEL			RMT5			RPSI			RTB1			RTB2			RTB3			RTH1			RTH2			RTH3			RTOE			RUA1			RUA2			RUA3		
		X1	Y1	Z1	X2	Y2	Z2	X3	Y3	Z3	X4	Y4	Z4	X5	Y5	Z5	X6	Y6	Z6	X7	Y7	Z7	X8	Y8	Z8	X9	Y9	Z9	X10	Y10	Z10	X11	Y11	Z11	X12	Y12	Z12	X13	Y13	Z13	X14	Y14	Z14	X15	Y15	Z15	X16	Y16	Z16	X17	Y17	Z17	X18	Y18	Z18	X19	Y19	Z19	X20	Y20	Z20	X21	Y21	Z21	X22	Y22	Z22	X23	Y23	Z23	X24	Y24	Z24	X25	Y25	Z25	X26	Y26	Z26	X27	Y27	Z27	X28	Y28	Z28	X29	Y29	Z29	X30	Y30	Z30	X31	Y31	Z31	X32	Y32	Z32	X33	Y33	Z33	X34	Y34	Z34	X35	Y35	Z35	X36	Y36	Z36	X37	Y37	Z37	X38	Y38	Z38	X39	Y39	Z39	X40	Y40	Z40	X41	Y41	Z41	X42	Y42	Z42

1	0.43	0.884886	1.50346	-0.309438	1.01673	1.40095	-0.279451	0.95055	1.4762	-0.450651	0.92902	0.981718	-0.425352	0.335056	0.35729	-0.353082	1.06268	1.21379	-0.441033	0.997126	1.21671	-0.565024	1.10083	1.17259	-0.475517	0.902052	1.19328	-0.633769	0.859356	1.16407	-0.577343	0.31406	0.170766	-0.430282	0.778383	1.04811	-0.348379	0.637789	0.414507	-0.369895	0.543728	0.416482	-0.426425	0.467461	0.324313	-0.365109	0.829404	0.788984	-0.459088	0.840286	0.673122	-0.441902	0.739959	0.595551	-0.432212	0.360912	0.14116	-0.334632	0.91681	1.37147	-0.551469	0.856989	1.31192	-0.543144	0.914209	1.27727	-0.597144	0.923879	1.47175	-0.160884	0.945132	0.999759	-0.186434	1.05467	0.101325	-0.277193	0.842241	1.1195	-0.0860475	0.740117	1.20403	-0.0351011	0.782211	1.08325	-0.0747125	0.663002	1.28933	-0.0512462	0.65332	1.27971	-0.128239	1.23594	0.10005	-0.190615	0.776829	1.0473	-0.247536	1.10423	0.416265	-0.223569	1.07899	0.331029	-0.180861	1.12412	0.232444	-0.246641	0.941427	0.767777	-0.112971	1.02767	0.708962	-0.132109	1.00626	0.604958	-0.157241	1.26783	0.161344	-0.28312	0.822414	1.41387	-0.0743737	0.752231	1.38969	-0.13202	0.727574	1.33086	-0.0622945
2	0.44	0.884815	1.49791	-0.307285	1.01709	1.39524	-0.279324	0.949238	1.4706	-0.449492	0.930595	0.977231	-0.425575	0.337616	0.370806	-0.353819	1.06376	1.20235	-0.442458	0.993318	1.20958	-0.566045	1.09779	1.16187	-0.479156	0.896538	1.18921	-0.63377	0.854491	1.15996	-0.576767	0.311759	0.186078	-0.434031	0.779507	1.04139	-0.347066	0.64561	0.408917	-0.370403	0.551489	0.415486	-0.426978	0.469767	0.330177	-0.365997	0.835126	0.782409	-0.458969	0.848784	0.666599	-0.442101	0.750619	0.586861	-0.433157	0.355233	0.153652	-0.337888	0.913489	1.36611	-0.550518	0.853257	1.30687	-0.541257	0.909652	1.27253	-0.596557	0.925302	1.46577	-0.159379	0.947204	0.993948	-0.186058	1.04097	0.0990966	-0.280224	0.84802	1.11363	-0.0843783	0.74574	1.1969	-0.031782	0.788636	1.07657	-0.0719835	0.667075	1.28095	-0.0465277	0.656575	1.27125	-0.123473	1.21594	0.0831144	-0.186574	0.778835	1.04001	-0.246682	1.09751	0.405352	-0.225053	1.07001	0.320852	-0.181681	1.11294	0.220822	-0.247158	0.943644	0.760906	-0.114901	1.02936	0.702608	-0.134688	1.00477	0.597408	-0.159054	1.25577	0.140877	-0.279586	0.825139	1.40681	-0.0715687	0.754324	1.38248	-0.128088	0.731149	1.32305	-0.0581388
3	0.45	0.884155	1.49094	-0.30509	1.0173	1.38865	-0.27937	0.947325	1.46448	-0.448259	0.932387	0.971467	-0.425653	0.344188	0.383638	-0.354062	1.06372	1.18969	-0.444854	0.988596	1.2017	-0.567384	1.09357	1.14995	-0.483758	0.889912	1.18478	-0.633556	0.84864	1.15539	-0.576217	0.311484	0.201388	-0.437457	0.780424	1.03347	-0.346195	0.655301	0.402524	-0.371629	0.561108	0.413624	-0.428195	0.474736	0.33522	-0.367027	0.840893	0.774733	-0.458978	0.857706	0.659109	-0.443573	0.761926	0.577229	-0.434264	0.352124	0.165786	-0.341268	0.908973	1.36044	-0.549294	0.848664	1.30146	-0.539008	0.904104	1.26745	-0.59594	0.926509	1.45883	-0.157961	0.948654	0.987394	-0.185725	1.02319	0.0993853	-0.283671	0.854547	1.10664	-0.0822705	0.752086	1.18822	-0.0276524	0.795891	1.0686	-0.0687404	0.671827	1.27102	-0.0408715	0.659974	1.26136	-0.11767	1.19303	0.0666791	-0.185437	0.779828	1.03197	-0.246209	1.09156	0.39508	-0.226108	1.06041	0.311535	-0.182917	1.10059	0.209895	-0.24864	0.945427	0.754397	-0.116758	1.03039	0.696051	-0.136904	1.00336	0.590107	-0.160201	1.23973	0.117215	-0.279025	0.828003	1.39869	-0.0687379	0.75619	1.37404	-0.123572	0.73523	1.31365	-0.0534164
4	0.46	0.88292	1.48296	-0.302804	1.01743	1.38134	-0.279602	0.944834	1.45813	-0.447223	0.934253	0.964584	-0.425386	0.354753	0.395496	-0.353847	1.06235	1.17603	-0.448302	0.982915	1.19314	-0.569018	1.08814	1.13702	-0.489348	0.88217	1.18005	-0.633147	0.841795	1.15044	-0.575581	0.313274	0.216618	-0.440552	0.781079	1.02463	-0.345892	0.666918	0.39565	-0.373624	0.572633	0.411288	-0.430142	0.48243	0.339461	-0.368135	0.846709	0.766048	-0.458891	0.866827	0.65081	-0.445899	0.773891	0.566717	-0.435299	0.351743	0.17734	-0.344934	0.903345	1.35441	-0.547784	0.843361	1.29563	-0.536452	0.897629	1.26203	-0.595407	0.927658	1.45115	-0.15648	0.948935	0.980434	-0.185543	1.00167	0.101357	-0.287149	0.86181	1.09861	-0.079818	0.759106	1.17809	-0.0227981	0.803971	1.05941	-0.0650957	0.677298	1.25967	-0.0343897	0.663535	1.25014	-0.110826	1.16826	0.0542975	-0.186746	0.779381	1.02349	-0.246007	1.08719	0.387055	-0.227054	1.05225	0.304673	-0.184673	1.08762	0.201579	-0.251481	0.946191	0.748656	-0.117726	1.0308	0.690001	-0.137872	1.00323	0.584283	-0.160079	1.22	0.0946715	-0.281117	0.831062	1.38947	-0.0658888	0.757917	1.3643	-0.118491	0.739844	1.30275	-0.0482421
5	0.47	0.881356	1.47495	-0.300268	1.01754	1.37368	-0.280075	0.94176	1.45198	-0.446775	0.935856	0.956975	-0.424544	0.3691	0.406008	-0.353256	1.05958	1.16168	-0.452801	0.976176	1.18416	-0.570879	1.08141	1.12335	-0.495939	0.873303	1.17518	-0.632558	0.834033	1.14536	-0.574692	0.317568	0.231551	-0.443305	0.781469	1.01535	-0.346315	0.680625	0.388845	-0.376091	0.58622	0.409184	-0.432556	0.493011	0.342992	-0.369161	0.852734	0.75687	-0.458466	0.875921	0.642282	-0.448321	0.786595	0.55569	-0.435935	0.35451	0.188083	-0.348967	0.896834	1.348	-0.546013	0.837515	1.28932	-0.533665	0.890302	1.2563	-0.595044	0.928873	1.4432	-0.15472	0.947485	0.973809	-0.185313	0.976909	0.10382	-0.289977	0.869804	1.08971	-0.0771891	0.766757	1.16663	-0.0173952	0.812903	1.04914	-0.0612907	0.683556	1.24713	-0.0272541	0.667319	1.2377	-0.103007	1.14217	0.0488231	-0.188979	0.777292	1.01503	-0.246076	1.08435	0.382573	-0.228604	1.04716	0.301572	-0.186821	1.07378	0.197512	-0.255558	0.945757	0.744252	-0.117333	1.03121	0.686036	-0.137205	1.0057	0.581324	-0.158344	1.19689	0.0786431	-0.28442	0.834411	1.37915	-0.0629679	0.759747	1.35319	-0.112819	0.745026	1.2905	-0.0427575
6	0.48	0.880046	1.46798	-0.29747	1.01755	1.36626	-0.280837	0.93821	1.4463	-0.447092	0.936846	0.949161	-0.423063	0.386733	0.414947	-0.352366	1.05539	1.14709	-0.458148	0.968287	1.17526	-0.572843	1.07328	1.10945	-0.503368	0.863353	1.17045	-0.631717	0.825531	1.14053	-0.573448	0.32525	0.245723	-0.445753	0.781663	1.00621	-0.34752	0.696613	0.382609	-0.378246	0.602092	0.407806	-0.43472	0.506644	0.345925	-0.369951	0.859243	0.748105	-0.457694	0.885109	0.634472	-0.450048	0.800242	0.54493	-0.435999	0.361048	0.197894	-0.35314	0.889898	1.34147	-0.544108	0.831251	1.28266	-0.530635	0.882192	1.2505	-0.594724	0.929994	1.43553	-0.152708	0.944419	0.968415	-0.184437	0.949669	0.105954	-0.291547	0.878592	1.08011	-0.0745593	0.775147	1.15406	-0.0117149	0.822766	1.03797	-0.0576114	0.690734	1.23364	-0.0196314	0.67156	1.22411	-0.0944362	1.11457	0.0489395	-0.190388	0.773882	1.007	-0.246596	1.08137	0.380743	-0.231021	1.04353	0.301383	-0.18879	1.05792	0.19685	-0.259608	0.944774	0.741251	-0.116163	1.03212	0.685022	-0.135713	1.01032	0.580917	-0.155694	1.17096	0.0709479	-0.286942	0.838179	1.36784	-0.0599267	0.762004	1.3408	-0.10657	0.750854	1.27719	-0.0370549
7	0.49	0.879619	1.46253	-0.294885	1.01729	1.35962	-0.281809	0.934626	1.44105	-0.447965	0.937112	0.941604	-0.421064	0.406867	0.422295	-0.351202	1.04972	1.13303	-0.463823	0.9593	1.16712	-0.574702	1.06364	1.09611	-0.511129	0.852511	1.16624	-0.630513	0.816415	1.13638	-0.571839	0.33732	0.258378	-0.44799	0.7817	0.99769	-0.34938	0.714954	0.377175	-0.379317	0.620399	0.406965	-0.435918	0.523315	0.348333	-0.370417	0.866331	0.740535	-0.456818	0.894958	0.628206	-0.450529	0.815165	0.535375	-0.435573	0.371934	0.20666	-0.356971	0.883183	1.33534	-0.542349	0.824762	1.27621	-0.527235	0.873432	1.24513	-0.59414	0.93063	1.42857	-0.150828	0.940548	0.964799	-0.182434	0.920962	0.107451	-0.29173	0.888357	1.07005	-0.0720855	0.784703	1.14078	-0.00614068	0.833693	1.02622	-0.0542495	0.6991	1.21942	-0.0116731	0.676751	1.20945	-0.0854484	1.08553	0.0507654	-0.190285	0.769667	0.99974	-0.247686	1.07609	0.378872	-0.23343	1.03725	0.301511	-0.189936	1.03914	0.196761	-0.262056	0.943829	0.738841	-0.115259	1.03281	0.685485	-0.134495	1.01418	0.5807	-0.153577	1.14312	0.0690496	-0.287612	0.842467	1.35582	-0.056892	0.764881	1.32752	-0.0999403	0.757504	1.26336	-0.0311912
8	0.5	0.880211	1.45829	-0.293362	1.01668	1.35389	-0.28278	0.931715	1.43602	-0.448961	0.936787	0.934654	-0.418822	0.428589	0.428187	-0.349809	1.04251	1.1204	-0.46901	0.949472	1.16031	-0.576202	1.05242	1.0842	-0.518427	0.84114	1.16287	-0.628893	0.806656	1.13323	-0.56986	0.35441	0.26864	-0.450108	0.781505	0.990174	-0.351595	0.735543	0.372562	-0.379163	0.641118	0.405951	-0.435984	0.542734	0.350271	-0.370475	0.873732	0.734385	-0.456121	0.906185	0.623693	-0.449623	0.831698	0.527625	-0.434916	0.387382	0.214088	-0.359993	0.877259	1.33014	-0.541059	0.818392	1.27083	-0.52338	0.864261	1.2407	-0.593044	0.930508	1.42248	-0.149541	0.93679	0.962744	-0.179525	0.89164	0.108311	-0.291022	0.899383	1.0598	-0.0699709	0.796107	1.12748	-0.00113117	0.845895	1.01438	-0.0511942	0.709022	1.2048	-0.00354771	0.683469	1.19393	-0.0762757	1.05569	0.0515479	-0.18927	0.765174	0.993521	-0.249232	1.06725	0.374501	-0.234522	1.02517	0.299595	-0.190194	1.01744	0.194801	-0.262526	0.942546	0.735782	-0.11521	1.03155	0.684179	-0.133916	1.01387	0.57801	-0.153118	1.11426	0.069012	-0.2869	0.847203	1.34356	-0.0542477	0.768276	1.31402	-0.0933386	0.76522	1.24968	-0.0252661
9	0.51	0.881198	1.45462	-0.29343	1.01582	1.34889	-0.283536	0.929983	1.43118	-0.449743	0.936029	0.928679	-0.416762	0.451121	0.432745	-0.348374	1.034	1.10984	-0.47293	0.939197	1.15499	-0.577165	1.03984	1.07432	-0.524526	0.829655	1.16045	-0.626869	0.796278	1.1312	-0.567427	0.376445	0.275799	-0.452143	0.780904	0.983934	-0.353767	0.758119	0.368803	-0.378295	0.664013	0.404248	-0.435347	0.564416	0.351786	-0.369993	0.880988	0.729442	-0.455723	0.91915	0.620598	-0.447647	0.849956	0.521727	-0.434288	0.407023	0.219648	-0.361989	0.872272	1.32612	-0.540365	0.81248	1.26724	-0.519248	0.855008	1.2375	-0.59142	0.929792	1.4172	-0.148976	0.933659	0.96135	-0.176608	0.862074	0.108687	-0.290236	0.911888	1.04979	-0.0685609	0.80988	1.1151	0.00292634	0.859655	1.00308	-0.0482467	0.720795	1.19032	0.00452182	0.69199	1.17809	-0.0669088	1.02566	0.0511384	-0.188341	0.761135	0.98848	-0.250967	1.05476	0.367127	-0.234096	1.00744	0.295063	-0.190263	0.99343	0.190675	-0.26225	0.939931	0.731375	-0.115886	1.02716	0.678714	-0.133752	1.00799	0.571992	-0.154352	1.08487	0.0685538	-0.286004	0.85204	1.33179	-0.05247	0.771914	1.30102	-0.0872623	0.774153	1.2368	-0.0194838
10	0.52	0.881605	1.4512	-0.294644	1.01488	1.34441	-0.284	0.929312	1.42683	-0.450223	0.93485	0.92414	-0.415373	0.473993	0.435905	-0.347225	1.02466	1.10139	-0.475412	0.928872	1.15088	-0.577643	1.0264	1.06652	-0.529231	0.81837	1.15895	-0.624431	0.785655	1.13021	-0.564416	0.402671	0.279486	-0.454029	0.779682	0.979155	-0.35546	0.782285	0.366141	-0.377233	0.688659	0.402083	-0.434521	0.587853	0.352886	-0.368885	0.887821	0.725588	-0.455552	0.933498	0.618699	-0.445288	0.869656	0.517479	-0.433793	0.430044	0.22278	-0.362992	0.86788	1.32322	-0.540057	0.807083	1.26562	-0.515311	0.845991	1.23544	-0.58942	0.929012	1.41263	-0.148842	0.93122	0.959615	-0.174654	0.832294	0.10884	-0.289922	0.925795	1.04062	-0.0683156	0.825867	1.10442	0.00591092	0.875192	0.993015	-0.0452271	0.734387	1.17669	0.0122581	0.702117	1.16274	-0.0572864	0.995578	0.0506471	-0.187975	0.75839	0.984659	-0.252592	1.03901	0.358233	-0.233623	0.986622	0.289048	-0.190996	0.96777	0.185849	-0.262771	0.935479	0.726043	-0.116817	1.02015	0.669639	-0.133905	0.997994	0.564029	-0.156383	1.05509	0.0675846	-0.28567	0.856495	1.32144	-0.0517842	0.775675	1.28904	-0.0821056	0.784223	1.2252	-0.0141108
